<?xml version="1.0" encoding="UTF-8" standalone="no"?>
<svg xmlns:rdf="http://www.w3.org/1999/02/22-rdf-syntax-ns#" xmlns="http://www.w3.org/2000/svg" xmlns:cc="http://creativecommons.org/ns#" xmlns:dc="http://purl.org/dc/elements/1.1/" height="1163pt" width="1184pt" stroke="aliceblue" version="1.1" viewBox="0 0 1184 1163" style="&#10;    fill: aliceblue;&#10;">
<path stroke-width="20px" d="m496.67 6.61c26.32-1.26 52.71-0.56 79.06-0.38 109.11 5.7 218.77 2 327.47 14.36 16.2 2.28 5.57 24.13 3.43 34.4-21.51-2.7-31.84 19.91-47.21 30.47-7.06 23.21-25.64 44.22-18.76 69.85-2.85 14.62 9.65 23.92 15.24 35.77 5.07 14.22 20.61 18.73 31.04 27.97 22.8 19.42 52.91 25.68 78.21 40.79 35.35 21.32 71.45 41.56 107.65 61.37 20.2 17.71 37.9 38.18 58 56.04 16.1 24.79 28.1 52.07 38.2 79.9 6.4 53.67 10.3 107.62 8.1 161.71-9.1 52.34-18.2 105.14-35.6 155.6-6 24.87-13.8 49.41-26.1 71.93-30.3 68.14-65 135.82-116.77 190.31-15.19 6.8-26.77 19-39.55 29.4-18.87 18.8-42.93 30.7-65.18 44.8-36.2 19.8-78.26 22.6-117.43 33.6-76.39 10.2-153.49 12.1-230.46 12.6-84.85-4.8-173.32-8.2-250.34-47.9-5.06-4-12.28-2.3-17.4-6.2-50.63-42.2-108.14-78.6-143.48-135.79-21.65-37.77-50.12-71.81-64.74-113.27-38.18-75.94-53.91-160.55-63.81-244.27-0.51-75.38-6.63-156.78 32.9-224.52 13.87-18.15 28.26-35.9 41.4-54.59 62.77-47.12 133-83.15 202.13-119.87 17.26-22.35 42.79-39.42 51.92-67.11-0.09-13.35-3.34-26.64-5.07-39.86-14.86-19-30.61-43.05-56.08-46.97-2.97-8.68-8.25-17.49-7.77-26.81 11.61-10.06 28.15-7.1 42.24-8.99 62.83-5.86 125.78-10.55 188.76-14.34m34.95 5.99c-85.37 2.94-171.05 7.13-255.43 20.73-3.32 4.79 0.85 12.92 3.27 17.68 14.28 0.45 28.66 0.23 42.84-1.8 192.52-19.32 386.7-18.06 579.44-3.52 3.02-3.59 2.61-13.26 0.98-17.26-122.73-18.6-247.43-13.48-371.1-15.83m54.88 28.87c-95.94 1.37-191.34 11.88-287.1 16.57 3.58 10.43 18.09 17.13 25.08 26.41 12.89 7.41 9.36 25.51 16.86 35.49 162.23-5.73 324.81-7.71 486.94 2.79 9.12 1.95 9.09-10.13 12.61-15.84 6.25-22.56 26.55-36.25 40.3-53.9-97.53-9.34-196.47-12.23-294.69-11.52m-51.99 78.96c-63.97 4.16-129.31 5.17-192.5 9.37-2.29 5.59-1.37 12.01-1.6 17.92 57.08 0.55 114.14-9.17 171.25-5.37 106.6 2.76 213.28 3.89 319.9 4.34 1.18-4.98 0.37-10.17 0.07-15.2-32.5-2.92-65.1-5.03-97.71-6.48-66.54 1.03-132.9-6.14-199.41-4.58m-51.88 28.88c-6.37 38.1-21.65 76.29-33.48 113.88 15.76-0.01 31.55-0.29 47.26-1.58 5.52-36.84 9.41-74.14 12.19-111.23-8.55-1.5-17.33-1.63-25.97-1.07m36.93-0.02c-7.55 35.44-10.55 75.16-14.2 112.23 16.74 1.47 33.64 1.45 50.45 2.11-0.84-37.33-2.52-74.64-3.03-111.99-10.71-3.11-22.2-2.43-33.22-2.35m-81.1 1.99c-5.11 13.94-2.46 33.45-10.31 47.94-8.76 20.55-19.18 40.96-26.93 61.62 10.96 3.44 26.63 0.36 38.95 0.77 14.48-35.54 29.42-71.51 30.66-110.48-10.78-0.53-21.6-0.3-32.37 0.15m126.08-0.12c-6.15 35.16 1.34 75.18-0.39 112.05 13.46 0.47 28.56-0.08 42.47-1.64-2.52-36.7-7.92-73.41-11.85-110.07-10.08 0.16-20.16-0.96-30.23-0.34m-150.88 1.23c-5.36 0.73-3.86 8.3-6.17 12.11-10.55 35.95-36.01 64.15-54.6 95.85 11.61 1.13 36.05 8.91 42.25-8.34 16.18-30.88 32.44-62.95 33.38-98.56-4.85-1.16-9.9-1.56-14.86-1.06m193.43-0.02c0.74 34.89-1.43 74.75 11.32 109.62 13.76-0.16 27.49 0.98 41.25 0.95-11.53-31.65-14.35-67.7-22.25-101.19 0.09-16.23-20.35-6.5-30.32-9.38m40.3-0.03c0.93 36.57 8.7 76.61 24.77 111.48 14.3-2.64 31.05-0.63 43.85-4.7-20.12-32.4-31.16-68.94-43.58-104.66-7.24-2.97-16.87-2.21-25.04-2.12m36.7-0.15c3.07 38.32 27.54 75.08 45.58 109.71 10.55-1.2 27.04 2.28 35.26-4.79-19.01-30.9-37.18-62.32-50.7-96.11-2.76-14.27-20.15-6.24-30.14-8.81m39.22 0.19c-2.8 1.59-0.83 7.07 0.06 10.16 14.72 32.87 31.37 65.11 53.13 93.93 10.49 5.29 23.02 1.57 34.27 2.6 0.14-6.85-6.86-11.27-9.9-16.96-22.1-26.37-33.42-59.14-51.44-88-8.64-1.17-17.39-2.16-26.12-1.73m39.76-0.09c-1.94 6.78 5.84 16.35 7.74 23.89 9.49 29.71 33.83 51.06 49.45 77.46 7.62 11.78 23.87 0.01 34.93 2.66-12.84-17.7-27.64-34.06-41.27-51.2-13.47-14.56-17.57-34.77-28.47-50.94-7.4-1.12-14.92-1.52-22.38-1.87m-422.97 1.62c-10.47 10.54-11.58 28.47-24.96 37.25-26.71 31.56-71.31 43.29-101.06 68.88 22.41 1.69 49.64 4.41 71.47-6.52 30.49-24.44 64.82-52.13 72.34-92.69 3.01-11.44-11.9-5.7-17.79-6.92m36.66 0.64c-3.12 0.66-7.45 0.43-9.52 2.92-2.37 22.9-18.16 40.61-28.57 60.18-16.09 14.42-32.67 28.4-48.95 42.65 16.62 5.04 37.04 6.76 53.15-2.38 22.02-32.76 51.13-63.24 56.88-103.75-7.64-0.76-15.37-0.2-22.99 0.38m421.73-0.42c-2.89 3.91 1.55 11.45 2.72 16.63 17.22 33.22 43.53 60.91 70.32 86.25 6.74-1.33 16.87 1.05 21.64-4.88-20.78-10.17-32.69-30.82-49.39-45.9-13.9-12.38-19.91-30.41-28.5-46.39-1.65-7.63-11.12-5.1-16.79-5.71m26.79 1.07c-0.32 20.11 19.07 37.53 30.98 53.54 12.7 19.54 33.91 30.42 51.37 45.01 6.4-1.19 19.37 0.28 21.08-6.42-29.21-10.12-58.12-24.65-77.46-49.56-12.36-11.54-9.91-36.59-25.97-42.57m112.43 102.19c-64.1 11.06-129.78 5.5-194.36 13.17-57.68-5.27-117.2 4.83-175.67-1.28-123.86-2.69-248.31 7.59-371.88-3.75-24.63 14.95-49.3 29.98-74.62 43.8 0.07 0.62 0.21 1.86 0.28 2.49 39.04 1.87 78.21-0.19 117.16 3.6 9.73 2.39 18.03-5.91 27.67-3.72 172 3.77 343.98-2.97 515.94 2.11 27.81 0.03 55.27-6.51 83.15-4.52 51.75 3.59 104.06 0.94 154.92-7.27-22.81-14.68-47.08-27.76-70.29-42.08-3.4-3-8.02-3.58-12.3-2.55m72.69 55.94c-1.6 0.45-5.1 0.88-4.2 3.33 29.2 19.75 54.6 44.38 82.8 65.46 6.3-10.49 18.3-29.26 1.1-36.42-8.4-8.28-13.5 8.98-22.5 6.98-16.6-14.96-32.7-39.27-57.2-39.35m28.7-0.33c7.1 10.17 19.7 16.41 28.5 25.43 3 4.17 9.8-1.93 6.3-5.17-10.9-7.62-22.6-14.91-34.8-20.26m-58.06 1.47c-4.2 2.21-13.25-0.49-15.07 4.27 16.22 13.95 33.66 26.62 50.73 39.53 20.3 10.67 29 33.08 43.2 49.88 10.7 21.18 17.3 45.23 28.2 65.75 7.6-13.12 11-30.82 17.3-45.53 2.6-15.97 17.7-24.91 23.5-39.24-5.8-8.07-13-15.15-19.2-22.96-13.5 3.47-7.6 27.03-20.3 30.56-21.7-23.06-48.1-41.3-72.1-62.01-10.1-9.78-23.91-14.46-36.26-20.25m-134.45 2.03c-26.33 2.81-33.93 33.86-43.9 54.11-1.83 6.69-11.36 4.86-11.24-2.14-3.95-15.25-17.92-23.98-27.21-35.68-13.15-14.77-36.24-13.55-52.31-9.15 34.17 22.62 57.4 58.24 85.91 86.29 10.54-13.4 18.15-29.03 28.22-42.85 16.67-17.12 34.96-32.57 52.06-49.24-7.76-5.29-21.89-0.34-31.53-1.34m49.41 0.13c-34.27 17.32-59.61 48.27-81.17 79.29-5.05 9.93-3.66 24.09-14.81 30.05-26.3-36.88-58.67-68.91-93.87-97.15-21.03-15.27-50.34-8.86-72.29-7.19 34.02 16.18 64.6 37.87 93.07 62.45 29.71 19.54 47.44 51.59 60.02 83.94 2.38 2.76 1.99 10.21 6.73 9.73 11.61-27.11 23.34-56.15 47.56-74.51 27.68-34.29 67.62-55.77 100.6-83.44-13.33-3.24-31.08-3.55-45.84-3.17m-385.51 1.81c-11.96 1.15-24.35 3.69-35.19 8.71-14.64 16.35-29.27 32.79-45.02 48.12-13.29 12.87-18.86 32.81-35.1 42.62-4.97-1.72-5.16-7.63-5.92-11.93-14.43-32.34-33.84-62.73-61.16-85.54-12.05-1.16-24.23-2-36.31-0.86 20.34 25.77 50.18 44.38 61.17 76.47 14.75 24.87 26.28 51.3 30.98 80.03 1.98 3.12 0.62 15.53 5.97 11.91 6.28-22.28 22.16-39.62 34.19-58.87 15.31-26.87 42.65-43.37 63.13-65.86 16.22-18.91 40.69-26.9 59.12-43.16-11-5.34-24.15-0.79-35.86-1.64m-327.54 0.88c-15.95 11.16-29.13 26.97-45.08 38.51-8.96-11.1 0.69-46.33-24.2-37.4-2.18 8.49 4.38 15.95 5.84 24.1 2.67 15.56 3.96 31.35 6.82 46.88 2.73 1.28 4.14-2.95 6.1-4.12 19.25-24.34 43.96-43.46 64.65-66.48-2.89-4.08-9.96-0.8-14.13-1.49m202.68-0.06c-0.48 6.8 9.68 18.27 15.36 25.84 8.47-7.56 16.92-16.91 23.76-25.09-11.64-3.22-26.55-0.12-39.12-0.75m180.29 0.12c-45.33 21.29-81.67 55.94-118.09 89.46-11.66 15.99-23.72 31.71-35.04 47.95-8.66 14.53-13.13 31.07-21.11 45.95-3.4 10.4 15.12 3.58 20.34 5.07 11.43-16.25 22.31-32.94 33.31-49.47 25.72-26.29 52.93-51.1 78.78-77.24 20.19-14.61 41.06-28.52 62-41.94 35.72 13.68 70.2 30.54 100.56 54.18 22.66 11.11 38.72 30.33 55.63 48.36 10.12 13.56 13.97 30.52 21.53 45.49 4.12 10.14 7.99 27.37 22.83 18.6-4.4-41.61-25.27-81.03-56.83-108.63-22.39-16.05-42.17-35.41-64.49-51.52-17.1-8.85-35.36-15.62-51.34-26.57-16.02-0.19-32.08-0.46-48.08 0.31m211.69 0.08c-3.63 0.63-9.14 0.25-10.61 4.51 10.65 10.92 19.52 24.35 30.86 34.04 8.66-11.91 17.61-25.4 22.74-38.78-14.31-0.65-28.69-0.46-42.99 0.23m-636.68 0.89c-8.55 2.26 0.68 14.35 1.28 19.6 9.49-3.12 15.81-12.91 24.15-18.36-7.47-3.82-17.25-0.94-25.43-1.24m69.74 0.15c-6.13 1.78-10.99 6.39-15.46 10.73-22.25 24.04-45.82 46.88-67.44 71.46-3.3 4.68-8.64-0.49-9.38-4.38-3.13-25.27-4.12-51.42-14.73-75.01-6.06 0.07-13.38 7.24-9.88 13.84 8.83 47.71 4.16 97.02 8.74 144.47 34.1-62.69 86.78-112.17 140.59-157.85-8.69-4.89-22-2.59-32.44-3.26m50.85-0.18c-46.01 30.19-82.08 71.94-119.09 112.11-13.52 18.55-23.8 39.27-36.73 58.24-5.89 7.77 12.82 8.76 16 5.08 25.29-40.9 61.98-72.7 92.63-109.41 15.42-13.44 34.07-22.45 50.48-34.57 2.75-1.69 6.51-5.4 9.71-2.42 15.78 15.2 34.01 28.96 44.38 48.75 9.62 16.98 24.39 31.35 29.24 50.76 5.71 18.99 12.43 37.71 18.79 56.46 5.36 2.3 13.75 1.78 12.94-5.72-0.71-37.02-20.77-69.51-32.96-103.48-13.4-17.4-24.54-37.23-41.99-51.05-13.8-9.43-23.98-28.47-43.4-24.75m83.14 0.07c-0.45 0.05-1.36 0.15-1.81 0.21 9.78 14.15 22.3 26.21 32.56 40.01 8.87 13.64 13.66 31.25 23.42 43.36 23.25-28.06 49.52-55.18 71.91-83.01-9.3-2.9-21.65-0.32-31.83-0.71-11.91 9.85-23.78 19.99-33.82 31.82-1.67 1.71-4.98 6.66-7.74 3.59-10.56-10.81-17.75-24.59-28.09-35.52-8.19-0.54-16.43-0.42-24.6 0.25m609.67 3.08c-24.07 13.93-46.28 30.93-69.17 46.69-20.45 15.73-35.84 36.87-55.13 53.88-9.89 18.15-21.06 35.97-29.96 54.5 5.34 11.78-12.91 36.17 9.79 29.45 15.96-21.39 22.57-48.88 42.99-67.14 26.9-35.47 61.49-63.44 97.73-88.77 23.5 1.45 40.67 18.32 56.62 33.73 21.2 16.8 34.6 40.79 51.4 61.55 10.7 18.55 11.7 40.97 20.8 60.27 2.6 2.81 8.4 0.9 5-4.11-9.4-48.16-28.8-95.23-62.4-131.49-22.99-15.34-43.13-36.62-67.67-48.56m-873.1 16.61c-6.38 8.67-16.85 17.51-15.49 29.07 14.65 40.42 10.82 84.17 11.31 126.33 6.53-0.61 18.64 0.99 15.02-9.54-1.26-48.09 3.26-100.36-10.84-145.86m500.28 10.41c-37.58 20.28-68.35 49.6-98.34 79.69-23.14 17.15-38.47 41.91-55.06 64.88-11.13 15.36-0.92 36.23-11.21 51.93-5.24 9.02-5.67 23.62-18.18 25.52-4.3 42 1.68 84.08 3.75 126.06 2.98 53.4 5.15 107.79 16.93 159.79 12.68 4.25 2.14 26.77 17.44 24.74 16.78-0.44 12.19 20.63 15.64 31.53 85.27 3.82 170.72 2.01 256.07 3.42 4.38-13.33 5.2-36.04 25.32-31.62 5.23-7.36 4.75-18.86 14.32-22.59 4.21-30.87 6.99-61.99 11.91-92.78 6.03-61.67 1.64-123.89 4.36-185.76-4.94-14.76-14.35-28.26-14.23-44.49-3.37-12.54-6.79-34.99 10.56-37.91-5.58-19.87-17.01-37.38-25.73-55.93-23.7-32.15-59.55-51.92-92.14-73.91-19.8-9-40.84-16.42-61.41-22.57m-314.02 8.97c-28.54 11.22-46.36 38.65-70.76 56.27-21.56 18.32-36.58 42.82-54.42 64.56-21.85 22.45-9.96 61.35-35.31 81.41 3.56 43.7 8.71 87.33 11.06 131.15 9.52 56.05 21.7 112.03 41.89 165.31 12.37-0.75 11.82 14.2 19.36 19.58 19.88-4.19 15.97 25.48 34.69 27.33 48.98 3.78 98.43 2.83 147.56 4.69 0.56-9.99-6.93-27.69 7.82-30.58 4.4-5.12-4.55-19.89 7.11-21-2.75-46.88-14.29-93.35-16.15-140.52-0.93-49.52-2.86-99.09-5.41-148.5-7.25-19.02-21.73-36.87-16.92-58.84 5.32-5.26 15.08-1.9 19.96-6.44-12.94-56.07-43.62-111.99-90.48-144.42m682.11 3.14c-28.39 16.06-50.77 40.59-75 62.02-16.39 28.2-44.43 50.22-51.45 83.23 7.17 14.59-3.7 30.26-4.88 45.33 0.52 13.47-16.1 20.14-13.37 33.77-1.06 52.98-1.58 106.04-2.93 159-1.76 47-18.63 94.17-8.03 140.66 4.35 3 10.1 4.04 13.92 7.74 3.01 6.66-2.22 13.63-1.42 20.49 60.49-2.81 121.09-5.95 181.65-8.27 5.12-7.44 7.06-16.75 12.71-23.93 4.6-3.39 12.9 0.86 15.6-5.31 7.3-15.33 20.1-28.28 22.2-45.74 7.7-41.95 20.1-83.07 23.2-125.79 6.6-44.1 13-88.72 8.7-133.22-13-15.28-11.1-36.61-15.9-55.03-3.5-9.35 6.7-10.13 12.4-12.68-6.8-17.73-8.9-37.02-16.5-54.4-13.2-15.54-23-33.93-38.2-47.76-18.41-17.04-35.31-39.76-62.7-40.11m-893.34 10.53c-12.98 18.13-23.64 38.28-30.82 59.4-2.38 22.89-8.76 45.12-12.26 67.83 1.11 37.9-6.56 76.33 1.71 113.8 9.19 54.47 12.53 110.31 31.29 162.66 9.54 41.4 32.36 77.71 50.22 115.77 6.91 2.87 17.96 5.14 23.48 4.52-8.25-11.83 2.39-20.77 2.26-32.47-19.13-53.64-29.75-110.64-43.81-166.02-5.78-67.1-9.67-134.51-15.82-201.54 11.9-4.3 4.97-18.06 5.81-27.32-1.93-31.56 5.1-69.47-12.06-96.63m1078.2 27.34c-10.5 7.18-19.5 17.52-21.5 30.52-5.6 24.26-22 50.17-14.3 74.23 6.9-14.65 9.7-30.87 15.6-45.91 8.3-16.36 18.9-31.5 27.3-47.8 0.8-4.02-3.2-11.59-7.1-11.04m10 25.9c-21.6 19.52-24.8 50.89-32.9 77.32-3.3 9.42 13.3 5.26 15.3 12.53-1.1 9.26-3.7 18.29-8.2 26.48-5.6 10.26-6.1 24.04-16.6 30.79-5.9 54.43-6 109.44-10.6 164.02-3.7 26.73-11.7 52.66-16.9 79.12-2.6 14.82-11.4 30.19-4.1 45.04 3.5 7.37-8.6 20.92 3.4 22.39 4.9 3.2-3.2 20.12 6.8 14.75 30.9-50.58 45.4-109.01 65.9-164.2 8.7-32.4 12.5-65.96 20.4-98.57 6.6-62.94 1.7-126.53-9.4-188.61-4.2-6.64-6.2-18.76-13.1-21.06m-1063.8 76.28c-4.34 0.72-8.55 2.11-12.64 3.71 2.14 13.73 5.6 27.31 7.47 41.13 10.85 1.23 21.82 1.94 32.74 2.07 6.07-13.88 12.13-28.27 8.44-43.93-11.81-2.1-24-4.02-36.01-2.98m289.74 10.78c-8.01 0.8-15.99 1.86-23.92 3.17-1.95 16.47 8.69 30.89 14.31 45.63 13.18 2.32 26.98 0.4 40.33 0.4 5.55-13.83 12.51-28.73 12.42-43.81-13.84-3.72-28.79-5.2-43.14-5.39m389.91 0.77c-3.43 17.3-4.34 41.7 10.46 56.06 10.46-1.04 21.75-0.06 31.82-2.28 8.96-14.8 11.51-32.89 14.16-49.71-18.73-2.08-37.6-3.94-56.44-4.07m305.42 1.94c-5.2 13.52 2 32 9.7 44.59 9.1 2.06 18.6 0.93 27.8-0.21 3.1-13.81 9.2-27.15 10.6-41.28-15.9-1.7-32-3.16-48.1-3.1m-985.98 41.03c-2.41 26.44-1.23 60.15 1.97 89.1 1.7 48.07 17 93.94 24.9 141.06 4.42 24.44 15.33 47.1 23.81 70.31 5.1 3.1 13.41-0.02 19.08-2.23-2.12-15.27-9.37-29.55-13.57-44.44-10.41-41.22-17.12-83.27-26.23-124.79-6.08-42.72-7.19-86.03-12.23-128.85-5.85-0.96-11.85-0.48-17.73-0.16m288.49 12.08c-2.74 48.86-1.21 101.76-0.69 152.1 7.38 45.32 13.4 90.89 19.98 136.34 6.4-0.38 15.97 2.17 21.06-0.85-13.38-94.72-19.12-190.68-18-286.39-7.38-1.18-14.89-1.54-22.35-1.2m711.79 0.12c-4.6 42.58-1.3 89.24-10.1 132.73-4.6 52.06-16.6 102.96-27.9 153.88 3.3 2.66 8.4 1.13 12.3 1.52 6-27.42 13.5-54.53 20.4-81.73 12-67.66 19.2-136.44 16-205.22-3.5-1.09-7.1-1.48-10.7-1.18m-305.96 5.89c-1.43 93.25-7.29 189.53-14.89 283.8-2.54 11.45 13.83 4.31 19.92 4.13 17.82-94.38 20.65-191.05 13.38-286.72-6.07-1.01-12.28-1.46-18.41-1.21m-389.59 289.22c-9.09-1.05-4.91 10.83-5.11 16.04 13.02 1.51 25.92-1.86 38.94-2 3.42-16.83-23.5-11.07-33.83-14.04m651.05-0.1c-6.4 2.31-7.7 10.28-7.2 16.23 9-1.22 25.2 6.52 30.6-1.87 7.3-16.44-13.7-12.91-23.4-14.36m-903.07 0.76c-5.99 17.29 24.42 13.13 34.23 9.96-3.35-16.09-22.72-9.1-34.23-9.96m629.28 7.47c-8.97 0.71-20.25 0.78-14.71 14.16 11.57-0.34 25.22 0.31 35.65-2.04 4.95-14.7-11.8-13.42-20.94-12.12m-622.03 11.02c-4.91 0.7-9.83 1.44-14.67 2.5 0.48 5.19 4.86 9.73 8.28 12.94 19.64 0.82 39.26 3.28 58.93 2.73 0.73-5.53-4.79-10.93-7.99-15.41-14.72-1.97-29.65-4.79-44.55-2.76m238.96 3.94c-14.78 2.14-7.42 15.29-7.26 24.85 23.6 1.08 47.36 2.96 71.05 2.48-0.86-9.02 1.62-24.01-11.17-24.64-17.55-0.48-35.03-3.08-52.62-2.69m636.06 0.98c-8.1-0.84-13.6 8.53-13.2 14.83 19.7 3.5 40.5-0.67 60.6-1.53 1.1-2.78 6.6-6.5 4-9.36-17.1-1.83-34.2-5.13-51.4-3.94m-259.17 5.99c-11.13 1.45-22.59 0.85-33.49 3.68-0.88 6.13-3.73 14.28-0.87 19.5 24.31-1.1 48.82-1.55 73.19-2.92 2.98-5.16 2.72-11.58 3.18-17.32-13.67-3.4-27.98-4.35-42.01-2.94m-651.63 9.59c2.83 10.96 12.97 19.43 19.64 28.42 22.52 6.64 46.22 6.49 69.49 7.28 165.18 6.11 330.49 14 495.84 10.13 120.25 1.42 240.28-7.17 360.23-13.8 15.6 2.43 24.4-13.98 25.4-26.89-66.2 1.5-131.95 12.17-198.23 11.04-180.14 9.01-360.48 6.11-540.59-2.16-77.54 1.12-154.41-10.89-231.78-14.02m26.18 39.82c5.22 15.24 15.5 28.7 27.92 39.18 14.86 5.93 31.21 2.92 46.73 5.08 203.99 7.36 408.1 2.53 612.17 0.79 74.35 2.74 148.08-7.99 222-13.55 5.4-10.26 15.3-20.06 17.5-31.27-67.71 0.29-135.02 9.83-202.73 10.65-110.46 0.02-220.9 2.25-331.36 0.84-130.72-4.78-261.72-1.49-392.23-11.72m872.62 42.66c-63.77 9.54-128.22 10.48-192.53 10.38-0.44 7.71 13.93 8.41 13.63 17.21-1.13 12.7-10.52 22.8-13.55 35.1 13.35-8.5 21.62-23.9 33.12-34.7 5.59-11.1 20.4-17.53 31.42-10.5 7.25 8.2 1.34 18.4 0.41 27.6 17.57-7.9 27.28-35.73 49.66-33.05 11.71 7.45 4.14 20.55-0.67 29.65 15.49-8.9 24.83-27.6 43.83-30.3 7.35-3.24 14.1 3.1 16.14 9.8 10.89-2.6 20.34-9.75 31.74-10.79 6-0.12 12.3-5.05 13.8-10.09-8-2.97-18.4-0.2-27-0.31m-836.85 7.41c3.72 8.58 14.63 13.88 19.9 22.18 9.1-11 25.89-16.26 39.11-10.5 8.56 3.7 3.69 15.2 8.93 20.4 11.58-12.4 25.87-24.8 44.05-22.2 14.22 5.2 13.53 20.7 14.93 31.8 9.38-6.1 12.59-21.5 21.01-30 7.57-4.6 16.78-6.57 23.25 1.1 13.37 6.9 6.24 24.7 5.79 34.1 13.77-13.4 24.67-39.8 48.41-38.5 8.69 4.4 19.09 13.6 15.62 24.4-4.79 15.2-11.37 29.9-15.77 45.2-0.52 5.3 4.5 1.1 5.45-1.4 14.9-23 32.06-44.4 46.41-67.7-29.77-4.25-60.5-0.1-90.26-5.84-62.27 2.62-124.62 0.45-186.83-3.04m585.62 1.59c-72.41 1.7-144.79 4.99-217.25 4.33-0.57 4.76 8 4.66 9.82 9.06 10.72 11.2-3.1 27-1.39 37.8 12.05-14.2 23.65-31 40.99-39.7 11.4-2.7 22.89 3 29.78 11.8 1.71 22.7-13.43 41.9-19.65 63 18.86-22.7 30.44-51.7 54.9-70.1 6.07-9.6 17.84-10.8 28.12-10.1 11.32 4.7 10.79 18.1 9 28.1-7.6 16.9-15.76 33.6-23.62 50.5 19.57-19.1 35.39-42.6 55.66-61.3 7.88-15.2 32.08-20.97 44.48-8.2 7.83 13.4-5.99 24.1-9.1 36.5 14.27-18.8 31.52-34.9 50.96-48.65-16.5-4.13-35.37-3.54-52.7-3.04m-290.25 4.38c-1.53 6.61 12.62 4.61 11.68 12.41 6.01 17.3-3.94 33-7.64 49.4 6.13-0.7 7.17-9.4 10.68-13.8 8.19-19.6 25.83-32.9 40.81-46.1-15.47-4.79-37.7-0.5-55.53-1.91m507.11 5.31c-4.77 1.4-9.41 3.7-12.82 7.3-28.81 29.3-58.11 58.1-85.75 88.5 7.03 1.3 15.34 2.1 20.92-3.3 28.17-24.8 58.42-48.4 79.75-79.6 0.8-3.7 5.73-14.8-2.1-12.9m39.77 1.2c-8.52 1.5-15.08 7.8-20.98 13.7-22.33 22.7-47.7 42.5-69.26 65.8 34.68-21.6 65.77-48.8 93.24-79.1-1-0.3-2-0.5-3-0.4m-89.73 0.9c-7.68 2.8-14.53 8-19.95 14.1-25.43 27.1-50.97 53.9-76.39 81 2.85 7.2 19.88 0.7 26.81 1.9 24.08-27.7 54.74-51.1 68.14-86.4 0.79-2.4 7.08-11.2 1.39-10.6m-116.89 1c-33 28.9-58.35 66-88.55 98 6.03 6.8 22.46 1.2 32.26 3.2 19.6-16.1 34.6-37 52.31-55 7.99-13.1 17.68-27.8 15.89-43.8-3.83-1.4-7.8-2.5-11.91-2.4m-479.77 2c-7.71 3-11.38 12.2-15.81 18.6-9.67 21.2-20.38 42.2-28.85 63.7 10.58 2.1 20.94 9.7 31.59 8.3 13.61-23.2 23.49-48.9 28.71-75.4 0.65-8.1-5.62-19.9-15.64-15.2m131.12 0.1c-14.61 4.4-18.29 21.1-25.98 32.4-14.07 23.2-38.18 40.5-47.84 66.1 15.74-0.1 31.49 0.1 47.22 0.8 15.68-23.1 33.83-45.8 38.09-74.4 6.1-9.1 3.87-30.9-11.49-24.9m72.55-0.1c-9.05 4.4-19.83 7.7-25.19 16.9-18.69 27.7-41.26 53.3-58.19 81.9 13.28 1.8 31.3 1 45.83 0.2 17.93-21.9 40.49-42.4 46.01-71.5 5.14-9.3 9.38-30.6-8.46-27.5m138.39 0c-9.3 5.3-18.95 11.6-24.09 21.4-19.37 25.9-40.73 51.5-58.38 78 19.71-5.3 49.47 10.5 59.51-13 8.78-15.3 24.66-27.3 27.22-45.6 3.1-12.4 9.34-24 10.57-36.7-1.36-6.2-10.24-4-14.83-4.1m200.6 0c-35.86 27.1-63.92 63.9-96.6 94.9 10.78 4 25.91-0.4 38.02-0.3 26.56-22.8 52.51-49.8 63.32-83.8 2.91-3.9 1.52-12.8-4.74-10.8m-658.65 1c-6.36 0.8-16.13 10.2-9.19 15.9 7.08 6.4 13.48 14.4 22.18 18.7 7.03-12.2 7.43-40.2-12.99-34.6m58.82 0.2c-18.65 6.6-24.05 28.7-36.67 42.4 13.19 9.6 25.67 21.2 39.9 28.8 8.8-12.2 12.13-28.6 16.51-43.3-0.24-12.9-0.91-32.4-19.74-27.9m119.9-0.1c-34.1 19.3-51.37 57.8-68.25 91.3 14.48 5.6 33.1 3.3 48.61 3.6 16.21-22.6 22.29-50.7 33.75-75.8 5.87-9-3.85-21.2-14.11-19.1m353.35 2c-6.16 2.5-12.37 5.6-17.39 10-21.03 28.7-46.14 55.1-65.33 84.6 12.86 1.1 31.15-0.8 44.72-2.7 18.73-29.3 49.71-52.8 55.07-89-3.87-4.9-11.8-3-17.07-2.9m-152.17 2c-7.99 3.3-16.1 8-20.64 15.6-18.55 26.5-43.05 49.9-59.72 76.9 22.6-2.4 57.09 13.2 71.63-13 14.26-22.9 29.2-47.7 28.95-75.6-6.38-2.5-13.29-4.8-20.22-3.9m259.99 97.1c-81.77 5.3-163.77 4.5-245.69 4.3-89.82 4.3-179.82 1-269.52-2.9-1.3 1.5 0.05 2.4 1.37 3.1 58.64 23.5 122.66 23.1 184.56 30.5 115.83 2.6 234.57 1.8 346.33-32.6 10.26-5.8-13.91-2.3-17.05-2.4z"/>
</svg>